# xmcd
#
# Track frame offsets:
#	150
#	13205
#	26826
#	40166
#	54924
#	68678
#	82413
#	95430
#	108092
#	119671
#
# Disc length: 1773 seconds
#
# Revision: 0
# Processed by: cddbd v1.5.2PL0 Copyright (c) Steve Scherf et al.
# Submitted via: audiograbber 1.83.01
#
DISCID=8306eb0a
DTITLE=Various Artist - Acoustic Blues
DYEAR=2002
DGENRE=Blues
TTITLE0=Sonny Terry and Brownie McGhee - Shakedown blues
TTITLE1=Bo Carter - All around man
TTITLE2=Big Joe Williams - Brother James
TTITLE3=Mississippi - Sitting on the top of the world
TTITLE4=Robert Johnson - Sweet home Chicago
TTITLE5=Blind Lemon Jefferson - Matchbox Blues
TTITLE6=Charley Patton - Stone pony blues
TTITLE7=Big Bill Broonzy - I feel so good
TTITLE8=Lightnin' Hopkins - Let me play with your poodle
TTITLE9=Sleepy John Estes - Someday Baby
EXTD=
EXTT0=
EXTT1=
EXTT2=
EXTT3=
EXTT4=
EXTT5=
EXTT6=
EXTT7=
EXTT8=
EXTT9=
PLAYORDER=
